<svg id="Layer_1" data-name="Layer 1" xmlns="http://www.w3.org/2000/svg" xmlns:xlink="http://www.w3.org/1999/xlink"
     viewBox="0 0 40 40">
    <defs>
        <linearGradient id="linear-gradient" x1="27.0518" y1="19.0874" x2="30.8762" y2="19.0874"
                        gradientTransform="matrix(1, 0, 0, -1, 0, 39)" gradientUnits="userSpaceOnUse">
            <stop offset="0" stop-color="#31c3e3"/>
            <stop offset="1" stop-color="#228bcc"/>
        </linearGradient>
        <linearGradient id="linear-gradient-2" x1="8" y1="19.0874" x2="11.8244" y2="19.0874"
                        xlink:href="#linear-gradient"/>
        <linearGradient id="linear-gradient-3" x1="12.8164" y1="19" x2="27.2087" y2="19"
                        gradientTransform="matrix(1, 0, 0, -1, 0, 39)" gradientUnits="userSpaceOnUse">
            <stop offset="0" stop-color="#f58220"/>
            <stop offset="1" stop-color="#f04f24"/>
        </linearGradient>
    </defs>
    <title>logo KSF</title>
    <path d="M29.5259,22.3688a2.4562,2.4562,0,1,0-2.4741-2.4562A2.4652,2.4652,0,0,0,29.5259,22.3688Z"
          fill="url(#linear-gradient)"/>
    <path d="M10.4741,22.3688A2.4562,2.4562,0,1,0,8,19.9126,2.4652,2.4652,0,0,0,10.4741,22.3688Z"
          fill="url(#linear-gradient-2)"/>
    <path d="M27.2025,24.7a2.48,2.48,0,0,0-2.3045-2.2878,2.5167,2.5167,0,0,0-.7222.0561,1.1862,1.1862,0,0,1-1.0926-.3242L17.9215,17.02a1.2051,1.2051,0,0,1-.2638-1.1782,2.4026,2.4026,0,0,0,.1068-.7107,2.3683,2.3683,0,0,0-.0377-.4239,1.6607,1.6607,0,0,1,1.8462-1.8327,2.8565,2.8565,0,0,0,.427.0374,2.7631,2.7631,0,0,0,.427-.0374,1.68,1.68,0,0,1,1.3689.4738,1.6331,1.6331,0,0,1,.4772,1.3589,2.3683,2.3683,0,0,0-.0376.4239A2.4735,2.4735,0,1,0,24.71,12.6753a2.42,2.42,0,0,0-.427.0374,1.68,1.68,0,0,1-1.3689-.4737,1.6338,1.6338,0,0,1-.4773-1.359,2.6027,2.6027,0,0,0,.0251-.6732,2.457,2.457,0,0,0-2.0847-2.1756,2.2909,2.2909,0,0,0-.7536,0,2.4694,2.4694,0,0,0-2.0848,2.1756,2.5733,2.5733,0,0,0,.0252.6732,1.6606,1.6606,0,0,1-1.8462,1.8327,2.4209,2.4209,0,0,0-.427-.0374,2.4584,2.4584,0,0,0-.1633,4.9122,2.5167,2.5167,0,0,0,.7222-.0561,1.1862,1.1862,0,0,1,1.0926.3242L22.1036,22.98a1.205,1.205,0,0,1,.2637,1.1782,2.4058,2.4058,0,0,0-.1067.7107,2.3591,2.3591,0,0,0,.0377.4239,1.6607,1.6607,0,0,1-1.8462,1.8327,2.8565,2.8565,0,0,0-.427-.0374,2.7616,2.7616,0,0,0-.427.0374,1.68,1.68,0,0,1-1.3689-.4738,1.6335,1.6335,0,0,1-.4773-1.3589,2.3591,2.3591,0,0,0,.0377-.4239,2.4735,2.4735,0,1,0-2.4741,2.4561,2.42,2.42,0,0,0,.427-.0374,1.68,1.68,0,0,1,1.3689.4737,1.6338,1.6338,0,0,1,.4773,1.359,2.6027,2.6027,0,0,0-.0251.6732,2.4569,2.4569,0,0,0,2.0847,2.1756,2.2909,2.2909,0,0,0,.7536,0,2.4692,2.4692,0,0,0,2.0847-2.1756,2.5724,2.5724,0,0,0-.0251-.6732,1.6606,1.6606,0,0,1,1.8462-1.8327,2.42,2.42,0,0,0,.427.0374A2.4586,2.4586,0,0,0,27.2025,24.7Z"
          fill-rule="evenodd" fill="url(#linear-gradient-3)"/>
</svg>